<svg xmlns="http://www.w3.org/2000/svg" viewBox="0 0 64 64" role="img" aria-label="UltraStar favicon">
  <defs>
    <linearGradient id="bg" x1="0" y1="0" x2="1" y2="1">
      <stop offset="0%" stop-color="#0a5f4d"/>
      <stop offset="100%" stop-color="#1ea672"/>
    </linearGradient>
    <linearGradient id="mic" x1="0" y1="0" x2="0" y2="1">
      <stop offset="0%" stop-color="#ffffff"/>
      <stop offset="100%" stop-color="#dff7ef"/>
    </linearGradient>
  </defs>

  <rect x="2" y="2" width="60" height="60" rx="14" fill="url(#bg)"/>

  <path d="M32 15c-5 0-9 4-9 9v10c0 5 4 9 9 9s9-4 9-9V24c0-5-4-9-9-9z" fill="url(#mic)"/>
  <rect x="29" y="43" width="6" height="8" rx="2" fill="#ffffff"/>
  <path d="M20 33a2 2 0 0 1 2 2c0 5.5 4.5 10 10 10s10-4.5 10-10a2 2 0 1 1 4 0c0 7-5.2 12.8-12 13.8V52h5a2 2 0 1 1 0 4H25a2 2 0 1 1 0-4h5v-3.2C23.2 47.8 18 42 18 35a2 2 0 0 1 2-2z" fill="#ffffff"/>

  <circle cx="49" cy="18" r="5" fill="#ffd95a"/>
  <path d="M49 11.5l1.3 2.7 3 .4-2.2 2.1.5 3-2.6-1.4-2.6 1.4.5-3-2.2-2.1 3-.4z" fill="#ffb300"/>
</svg>
